<?xml version="1.0" encoding="UTF-8" standalone="no"?>
<!-- Created with Inkscape (http://www.inkscape.org/) -->

<svg
   width="210mm"
   height="297mm"
   viewBox="0 0 210 297"
   version="1.1"
   id="svg1"
   inkscape:version="1.4.1 (93de688d07, 2025-03-30)"
   sodipodi:docname="LogoIOWOLF.svg"
   xmlns:inkscape="http://www.inkscape.org/namespaces/inkscape"
   xmlns:sodipodi="http://sodipodi.sourceforge.net/DTD/sodipodi-0.dtd"
   xmlns="http://www.w3.org/2000/svg"
   xmlns:svg="http://www.w3.org/2000/svg">
  <sodipodi:namedview
     id="namedview1"
     pagecolor="#ffffff"
     bordercolor="#000000"
     borderopacity="0.25"
     inkscape:showpageshadow="2"
     inkscape:pageopacity="0.0"
     inkscape:pagecheckerboard="0"
     inkscape:deskcolor="#d1d1d1"
     inkscape:document-units="mm"
     inkscape:zoom="0.74386223"
     inkscape:cx="396.57881"
     inkscape:cy="561.25984"
     inkscape:window-width="1920"
     inkscape:window-height="1056"
     inkscape:window-x="0"
     inkscape:window-y="0"
     inkscape:window-maximized="1"
     inkscape:current-layer="layer1" />
  <defs
     id="defs1" />
  <g
     inkscape:label="Layer 1"
     inkscape:groupmode="layer"
     id="layer1">
    <g
       id="g1350"
       transform="matrix(0.17718584,0,0,0.17290774,50.045358,86.952458)">
      <g
         id="uuid-2e01c9de-8dd6-4f1a-a22c-bd7a4ef4b747">
        <g
           id="uuid-0094c128-606a-415c-baa1-1e41da180e1d">
          <path
             id="uuid-3cd407eb-f4d9-4ac5-b4d8-47557df1db3f"
             class="st0"
             d="M 8.5,334.1 C -22,186.9 72.5,43 219.7,12.4 366.9,-18.2 510.9,76.4 541.4,223.6 571.9,370.8 477.4,514.8 330.2,545.3 194.1,573.5 58.6,494.7 16,362.4"
             style="clip-rule:evenodd;fill:#cccccc;fill-rule:evenodd;stroke:#000000;stroke-width:1.01;stroke-miterlimit:4.04" />
          <path
             id="uuid-276f7527-dc19-47de-8785-39037b382b30"
             class="st1"
             d="m 129.5,48.8 -13.9,24 21.5,-20.2 10.1,-6.3 6.3,11.4 c -9.9,6.5 -19.6,13.2 -29.1,20.2 -7.7,5.7 -15.3,11.6 -22.8,17.7 L 94,115.8 h 7.6 l 10.1,-7.6 11.4,-29.1 26.6,-12.6 h 13.9 l 3.8,-10.1 36.7,-2.5 11.4,-2.5 21.5,5.1 17.7,10.1 7.6,10.1 11.4,6.3 v 20.2 l -19,11.4 -20.2,1.3 -7.6,11.4 -2.5,10.1 13.9,7.6 -3.8,27.8 -21.5,12.6 -5.1,3.8 -72.1,8.9 -15.2,10.1 5.1,26.6 27.8,13.9 v 15.2 l 6.3,-12.6 8.9,7.6 v 19 l -6.3,13.9 15.2,10.1 17.7,7.6 1.3,5.1 c -1.2,-7.2 -2.4,-14.3 -3.8,-21.5 -0.8,-4.2 -1.7,-8.4 -2.5,-12.6 l 7.6,-5.1 15.2,5.1 12.6,16.4 v 16.4 l 15.2,-2.5 7.6,12.6 -2.5,12.6 -7.6,6.3 -3.8,10.1 10.1,10.1 -12.6,25.3 -30.3,13.9 -10.1,3.8 -3.8,19 -24,-3.8 -5.1,-6.3 2.5,-6.3 3.8,-1.3 -11.4,-2.5 -8.9,5.1 h -5.1 l -8.9,3.8 -12.6,2.5 -13.9,-11.4 -3.8,-6.3 -1.3,-10.1 -5.1,-5.1 -1.3,-11.4 6.3,-3.8 12.6,-5.1 -8.9,-25.3 -20.2,15.2 -15.2,3.8 -5.1,-5.1 -10.1,7.6 -17.7,-25.3 -8.9,16.4 -11.4,-12.6 1.3,-21.5 7.6,-6.3 -8.9,-3.8 C 12.2,301.5 10.5,297.3 9.1,293 6.3,284 5,274.6 5.3,265.2 L 4,262.7 11.6,215.9 c 2.8,-9.3 5.7,-18.6 8.9,-27.8 4.6,-13.6 9.7,-27.1 15.2,-40.5 l 34.1,-48.1 36.7,-34.1 23,-16.6"
             style="fill:#999999" />
          <path
             id="uuid-7816d257-95cb-4dca-a57c-6df068e82a65"
             class="st1"
             d="m 463.4,314.2 25.3,8.9 13.9,-19 v -8.9 l -3.8,-13.9 3.8,-11.4 V 261 l 15.2,-8.9 -1.3,-12.6 -16.4,-12.5 5.1,-7.6 -12.6,-8.9 h -10.1 l -25.3,-19 -10.1,5.1 -7.6,-6.3 1.3,-8.9 v -6.3 l -21.5,-12.6 -3.8,-25.3 -17.7,-1.3 -15.2,11.4 -12.6,2.5 -1.3,-27.8 -49.3,-36.7 h -41.7 l -2.5,8.9 -7.6,17.7 1.3,32.9 -6.3,6.3 5.1,17.7 -32.9,7.6 -8.9,7.6 v 7.6 l -15.2,1.3 -2.5,12.6 3.8,5.1 -25.3,19 16.4,16.4 11.4,3.8 21.5,16.4 16.4,-5.1 8.9,-12.6 v -11.4 l -19,-11.4 -12.6,-5.1 -2.5,-5.1 20.2,-8.9 c 7.6,3.7 15.2,7.5 22.8,11.4 6.4,3.3 12.7,6.7 19,10.1 l 19,-20.2 v -20.2 l -3.8,-12.6 13.9,-3.8 10.1,3.8 -11.4,11.4 30.3,62 17.7,3.8 -10.1,15.2 19,11.4 17.7,-5.1 12.6,-45.5 13.9,7.6 16.4,-3.8 -1.3,13.9 6.3,7.6 -5.1,10.1 1.3,6.3 5.1,13.9 16.4,2.5 12.6,8.9 h 6.3 l -8.9,5.1 -10.1,3.8 6.3,10"
             style="fill:#999999" />
          <path
             id="uuid-ebfc5599-e4d3-4a40-8bf7-8d594a15d384"
             class="st1"
             d="m 448.2,165.1 16.4,10.1 17.7,15.2 21.5,-12.6 1.3,-13.9 6.3,-8.9 -21.5,-25.3 -15.2,-3.8 -16.4,-2.5 -10.1,12.6 v 29.1"
             style="fill:#999999" />
          <path
             id="uuid-3595b15a-2234-4163-b6e5-e0a8c4822867"
             class="st1"
             d="m 406.4,280.1 19,-2.5 13.9,13.9 -5.1,16.4 -3.8,24 -15.2,3.8 -19,-5.1 -13.9,-31.6 16.4,-19 7.7,0.1"
             style="fill:#999999" />
          <path
             id="uuid-c7f238db-882a-4633-a3d0-6930a0d74ddd"
             class="st1"
             d="m 526.6,208.1 2.5,-12.6 -16.4,-6.3 -7.6,7.6 7.6,19 12.6,5.1 1.3,-12.8"
             style="fill:#999999" />
          <path
             id="uuid-e7bcb19b-0484-401e-809c-626e42e851cf"
             class="st2"
             d="m 153.5,267.5 -6.3,21.5 -5.1,-5.1 6.3,-7.6 5.1,-8.8"
             style="fill:#b3b3b3" />
          <path
             id="uuid-9a3a1ac3-bf78-4337-ab74-e9c0845da261"
             class="st3"
             d="m 163.7,333.2 -7.6,1.3 v 8.9 l -10.1,8.9 -8.9,2.5 11.4,12.6 5.1,-3.8 1.3,-11.4 8.8,-19"
             style="fill:#cccccc" />
          <path
             id="uuid-9e91ac1d-f7d9-4d12-bb92-e86cc9b68288"
             class="st4"
             d="m 189.2,122.2 c -1.6,-6.8 3.3,-13.5 10.8,-14.9 7.5,-1.4 14.9,3 16.4,9.8 1.6,6.8 -3.3,13.5 -10.8,14.9 -7,1.3 -13.9,-2.4 -16.1,-8.5"
             style="clip-rule:evenodd;fill:#666666;fill-rule:evenodd" />
          <path
             id="uuid-ada2eacb-ceee-4092-943d-8b41ebf1a375"
             class="st4"
             d="m 75.3,198.9 c -1.1,-6.2 2.2,-12.2 7.4,-13.5 5.1,-1.3 10.1,2.7 11.2,8.8 1.1,6.1 -2.2,12.2 -7.4,13.5 -4.7,1.2 -9.5,-2.1 -11,-7.7"
             style="clip-rule:evenodd;fill:#666666;fill-rule:evenodd" />
          <path
             id="uuid-30ccfefa-3471-4908-a391-2c62bffcd1dd"
             class="st3"
             d="m 108,184.1 -2.5,16.4 -1.3,35.4 3.8,-27.8 8.9,19 -5.1,-20.2 15.2,3.8 -11.4,-7.6 11.4,-8.9 -11.4,6.3 3.8,-15.2 -6.3,13.9 -16.4,-11.4 7.6,10.1 H 94.2 l 8.9,2.5 -12.6,12.6 11.4,-6.3 -8.9,17.7 c 3.4,-5 6.8,-10.1 10.1,-15.2 3,-4.6 5.9,-9.2 8.9,-13.9 l -4,-11.2"
             style="fill:#cccccc" />
          <path
             id="uuid-c5ed7e33-869e-453f-b283-a7698d5ea9de"
             class="st3"
             d="m 120.9,105.7 -1.7,10.4 -0.8,22.5 2.5,-17.6 5.8,12 -3.3,-12.8 9.9,2.4 -7.5,-4.8 7.5,-5.6 -7.5,4 2.5,-9.6 -4.1,8.8 -10.8,-7.2 5,6.4 h -6.6 l 5.8,1.6 -8.3,8 7.5,-4 -5.8,11.2 c 2.2,-3.2 4.5,-6.4 6.6,-9.6 2,-2.9 3.9,-5.9 5.8,-8.8 l -2.5,-7.3"
             style="fill:#cccccc" />
        </g>
      </g>
      <path
         class="st5"
         d="M 382,525.9 C 477.8,484.5 544.9,389.1 544.9,278 544.9,140 441.3,26.1 307.5,10.1 H 242.4 C 108.8,26.2 5.1,140 5.1,278 c 0,111.1 67,206.5 162.9,247.9 33.2,11.8 70.6,19.2 107,19.2 31.6,-0.1 60.7,-6.2 107,-19.2 z m -34.8,-69.8 c -0.9,-0.1 -1.2,0 -1.5,0 -1.4,-0.1 -2.2,-0.1 -3.1,0 -0.8,-0.1 -1.1,-0.1 -1.4,-0.1 -1.3,-0.1 -2.2,-0.1 -3.1,0 -1.4,-0.1 -2.2,-0.1 -3,0 -1.8,-0.1 -3.3,-0.1 -4.7,-0.1 -1,-0.1 -1.6,0.1 -2.1,0.1 -5.5,0.2 -7.3,-1.5 -7.1,-7.3 0.1,-2.3 0.5,-4.5 0.7,-6.7 0.2,-0.5 0.2,-0.6 0.2,-0.8 0.3,-1.3 0.3,-2.2 0.4,-3.1 1,-3.9 1.8,-7.4 2.6,-11 0.4,-0.8 0.5,-1.2 0.5,-1.6 0.5,-0.8 0.6,-1.2 0.7,-1.7 1.5,-3 2.7,-5.6 3.9,-8.4 1.7,-2.8 3.2,-5.2 4.6,-7.8 1.3,-2.8 2.8,-3 4.8,-1.4 0,0.1 0.1,0.1 0.1,0.2 v 0 0.2 h 0.1 c 0,0 0,0.1 -0.1,0.1 0.4,0.3 0.7,0.6 1.1,0.9 0.9,5.2 1.9,10.2 2.7,15 0.8,5 1,10 2.1,15 1.3,6 4.1,11.3 8.3,15.8 0.5,0.6 0.9,1.3 1.7,2.6 -3.4,0.1 -5.9,0.1 -8.4,0.1 z M 217.3,150.3 c 0,1.2 0.2,1.8 0.3,2.5 0.1,0.8 0.3,1.2 0.4,1.5 0.1,0.8 0.2,1.3 0.3,1.7 2,2.9 2.9,4.1 2.5,5.4 -0.3,1 -1.2,2.1 -2.9,4.1 -2.3,2.9 -4,6.3 -5.8,9.5 -3.2,6.5 -6,12.6 -8.8,18.8 -0.9,3.8 -1.6,7.2 -2.2,10.6 0.1,2.2 0.4,3.9 0.6,5.5 0.8,1.6 2.1,2.8 3,4.2 2.8,4.5 3.2,9 -0.5,13.3 -1.2,1 -2.1,1.6 -3,2.3 -0.8,0.3 -1.2,0.5 -1.6,0.8 h -0.4 c 0,0.3 -0.1,0.5 -0.3,0.5 -0.4,0.7 -0.6,1.4 -0.7,2.1 -0.6,6.4 -1,12.2 -1.4,18.1 -0.3,8.2 -0.5,15.7 -0.6,23.3 -0.1,2.8 0.3,5.1 0.1,7.3 -0.4,9.9 1.8,19.4 5.2,28.6 0.6,1.7 0.7,3.8 1.1,5.6 1,4 1.8,7.4 2.7,10.8 v 0.3 0 0.3 h 0.1 l -0.1,0.1 0.6,0.3 c 1.4,5.2 2.9,10 4.4,14.8 0.5,2.5 1,4.5 1.5,6.4 0.1,0.8 0.2,1 0.3,1.4 0.1,1 0.3,1.5 0.5,2.1 -0.1,0.4 0.1,0.6 0.1,0.6 0.1,0.8 0.3,1.4 0.5,1.9 0.4,2.2 0.8,4 1.2,5.8 -0.1,2 -0.1,3.6 -0.1,5.1 0.3,0.9 0.5,1.2 0.7,1.5 -0.1,0.7 -0.1,1.2 -0.1,1.6 v 0.3 c 0.3,1 0.5,1.4 0.6,1.9 0.2,1 0.5,1.6 0.7,2.3 0.1,3.8 0.5,7.4 0.9,11 0.3,2.1 0.7,3.6 0.9,5.2 1.6,10.8 0.8,21.6 -0.9,32.3 -0.3,1.9 -0.5,3.8 -0.6,5.8 -0.4,0.7 -0.5,1 -0.6,1.3 -0.1,0 -0.1,-0.1 -0.2,-0.1 v 0 c -0.1,-0.1 -0.2,-0.1 -0.2,-0.1 v 0 c 0.1,1 0.1,1.9 0.2,2.9 -0.5,2.1 -0.6,3.9 -0.7,5.6 0.1,2.1 0.2,3.8 0.3,5.4 0.1,0.5 0.1,0.9 0.2,1.4 0.3,2.1 0.8,4.1 1.3,6.5 -1,0.3 -1.9,0.5 -2.8,0.7 -4.3,-0.6 -8.2,-0.8 -12,-1.6 -6.9,-1.2 -13.4,-0.3 -19.8,2.4 -2.7,0.7 -4.9,1.6 -7.2,2.3 -2.3,0.6 -4,1.3 -5.8,1.9 -0.8,0.1 -1.2,0.3 -1.6,0.4 -8.2,2.5 -15.9,5 -23.6,7.5 -0.3,-0.1 -0.5,-0.1 -0.6,0 -0.8,0.1 -1.2,0.3 -1.7,0.5 -0.4,0 -0.6,0.1 -0.8,0 -0.9,0.1 -1.6,0.3 -2.3,0.5 -2.2,0.3 -4,0.6 -5.7,1 -0.8,0 -1.2,0.1 -1.6,0.3 -2.3,0.1 -4.2,0.3 -6.2,0.5 -1,-0.1 -1.3,0 -1.7,0.1 -2.4,-0.1 -4.6,-0.1 -6.8,-0.1 -0.9,-0.1 -1.3,-0.1 -1.6,-0.1 -0.5,-0.1 -0.8,-0.1 -1.1,-0.1 -0.5,-0.1 -0.6,0 -0.8,0 -0.6,-0.1 -0.9,-0.1 -1.2,-0.1 -2.2,-0.1 -4,0 -5.7,0.1 -3.2,0 -5.9,0.1 -8.5,0.3 -0.6,-0.1 -0.7,-0.1 -0.8,0 -0.8,-0.1 -1.3,-0.1 -1.7,0 -1,-0.1 -1.6,-0.1 -2.1,0 -6.2,0.3 -11.3,-1 -15.4,-4.9 -1,-0.9 -1.9,-1.9 -2.7,-3.1 C 69.9,452.1 64,445.6 58.7,438.7 46.9,423.7 37.2,407.4 29.6,390 24.2,377.6 19,364.9 15.3,351.9 11.9,340 10.1,327.5 8.2,315.2 c -3.4,-22.1 -2.3,-44.3 0,-66.5 0,-0.2 0.1,-0.4 0.1,-0.6 0.1,-0.3 0.1,-0.6 0.2,-1 2.7,-12.6 4.4,-24.9 7.7,-36.8 6.3,-23.1 15.7,-45 28.3,-65.4 7.6,-12.4 16.3,-24.4 25.7,-35.6 9.3,-11.1 19.3,-21.8 30.3,-31.2 13.4,-11.3 27.9,-21.3 43.4,-29.7 14.8,-8.1 30.3,-14.6 46.3,-19.8 3,-1 5.9,-2.3 8.8,-3.5 0.4,0.1 0.6,0 0.6,0 15.1,-2.9 29.9,-6.7 44.9,-8.5 13.9,-1.4 28.1,-1.2 42.1,-1.2 14.6,-0.1 29,1.8 43.3,5.2 6.1,1.5 12.3,2.7 18.5,4 5.8,2.1 11.1,3.8 16.5,5.5 0.6,0.3 0.9,0.4 1.1,0.4 0.2,0.3 0.4,0.3 0.4,0.3 1.5,0.5 2.9,0.8 4.3,1.2 0.7,0.4 1.1,0.5 1.4,0.6 12.9,4.3 24.6,10.5 36.3,16.8 15,8.1 28.8,17.9 41.5,29.1 12.8,11.2 25.1,23.1 34.9,37.3 6.5,9.6 13.9,18.7 19.8,28.7 8.5,14.3 15.9,29.2 21.5,44.9 0.9,2.5 1.7,5.1 2.5,7.6 4.7,11.3 7.5,22.6 9.5,34.1 2.5,14.9 4.7,29.8 4.8,45 0.1,23.1 -2.3,46.1 -7.9,68.6 -5.8,23.2 -14.6,45.3 -26.8,65.9 -6.5,10.9 -13.5,21.5 -20.9,31.9 -4.9,6.8 -10.7,12.9 -16.1,19.3 -0.5,0.6 -1.4,1.3 -2,1.2 -4.7,-1 -9.4,-2.1 -14.1,-3.2 -0.6,-0.3 -1,-0.3 -1.2,-0.3 -1.6,-0.5 -2.9,-0.8 -4.1,-1 -2,-0.6 -3.8,-0.9 -5.6,-1.2 -0.8,-0.3 -1.1,-0.3 -1.5,-0.3 -1.8,-0.3 -3.4,-0.5 -4.9,-0.6 -1.2,-0.1 -1.9,-0.1 -2.7,0 -1.2,0.1 -1.9,0.3 -2.6,0.4 -1,0.1 -1.6,0.2 -2.1,0.3 -1,-0.1 -1.7,-0.1 -2.5,0 -2.7,-0.5 -5,-0.7 -7.2,-1 -1.3,-0.7 -2.2,-1.1 -3.1,-1.5 -0.6,-0.5 -1,-0.5 -1.4,-0.6 -1.7,-0.3 -3.1,-0.3 -4.5,-0.3 -1,-0.1 -1.6,-0.1 -2.1,-0.1 -2.5,-0.6 -4.8,-0.9 -7,-1.3 -0.7,-0.5 -1,-0.6 -1.4,-0.6 -1.8,0 -3.1,-0.3 -3.8,-1.2 -0.5,-0.6 -0.8,-1.7 -0.5,-3.2 0.3,-1.9 -0.1,-3.8 -0.1,-5.7 0.1,-1.6 0.1,-2.8 0.1,-3.9 0.1,-0.8 0,-1.1 -0.1,-1.4 -0.1,-0.8 -0.3,-1.1 -0.4,-1.4 -0.1,-1.4 -0.3,-2.6 -0.5,-3.7 0,-1.4 -0.1,-2.3 -0.1,-3.2 0.2,-3.4 0.3,-6.2 0.3,-9.1 -0.1,-3.6 -0.3,-6.7 -0.6,-9.8 0.2,-1.1 0.1,-1.8 0,-2.5 -0.2,-1.9 -0.5,-3.3 -0.7,-4.7 0,-1 -0.1,-1.4 -0.3,-1.9 -0.1,-0.8 -0.2,-1.2 -0.3,-1.5 0,-1 -0.1,-1.7 -0.3,-2.4 -0.1,-1 -0.3,-1.6 -0.5,-2.1 0.1,-0.5 0.1,-0.6 -0.1,-0.8 -1.2,-4.9 -2.3,-9.3 -3.4,-13.8 -1.9,-4.9 -4,-9.3 -6,-13.6 0.1,-0.5 -0.1,-0.6 -0.1,-0.6 -2.9,-5.4 -5.9,-10.5 -8.8,-15.6 -1.3,-2.5 -2.6,-4.4 -3.9,-6.4 -1.6,-2.3 -3.1,-4.1 -4.5,-5.9 -2.2,-2.9 -4.3,-5.3 -6.4,-7.7 -4.1,-3.2 -8.1,-6 -12.1,-8.7 -1.5,-1.3 -2.6,-2.3 -3.7,-3.3 -0.2,-0.3 -0.3,-0.4 -0.3,-0.4 -6,-5 -11.9,-9.9 -17.8,-14.8 -1.2,-1.7 -2.4,-3.1 -3.5,-4.5 -5.4,-11.3 -9.8,-22.6 -12.8,-34.3 -0.6,-3.8 -1.3,-7.1 -1.9,-10.4 0,-0.8 -0.1,-1.1 -0.1,-1.4 -1.7,-5.1 -3.5,-9.8 -5.2,-14.5 -0.1,-0.1 -0.1,-0.3 -0.1,-0.5 v -0.1 c 0,-0.1 0,-0.2 -0.1,-0.3 -0.1,-0.5 -0.1,-0.9 -0.1,-1.3 -0.5,-1.2 -1,-2 -1.5,-2.8 0,-0.5 -0.1,-0.5 -0.1,-0.5 -1.4,-2.5 -2.9,-4.9 -4.3,-7.3 -3.6,-4.9 -7.1,-9.4 -10.8,-14.1 1.2,-0.6 2.3,-1.2 3.4,-1.7 5.3,-1.4 10.2,-2.8 15,-4.1 -0.4,-2 -1.4,-4 -2.3,-6.1 -1.1,-0.9 -2.4,-1.1 -2.9,-1.8 -4,-6.1 -7.7,-12.3 -11.5,-18.5 -0.4,-0.8 -0.8,-1.2 -1.2,-1.6 -1.2,-1.2 -2.1,-1.9 -3.1,-2.7 -1.9,-2.6 -3.6,-4.9 -5.2,-7.1 -1.7,-3.3 -3.4,-6.2 -5.1,-9.1 -2.7,-5.8 -5.4,-11 -8,-16.3 0.1,-0.3 -0.1,-0.5 -0.1,-0.5 -0.2,-0.3 -0.4,-0.5 -0.6,-0.7 v -0.2 0 c 0,-0.2 0,-0.1 0,-0.1 v -0.1 0 c -3.2,-5.7 -6.4,-11.4 -9.6,-17.1 -0.7,-1.8 -1.5,-3.1 -2.2,-4.4 -3.2,-5.6 -5.8,-11.1 -10.7,-14.9 -0.4,-0.4 -0.6,-0.5 -0.8,-0.5 h -0.1 c -4.5,6.4 -8.7,12.8 -12.8,19.2 -3.3,6 -6.2,11.7 -9.1,17.4 -0.8,2.1 -1.2,3.8 -1.6,5.6 -0.3,2 -0.1,3.6 0,5.2 z m 35.8,305.6 c -7,0.8 -13.5,1.9 -19.9,-1.5 1.4,-4.6 2.7,-8.9 4,-13.3 0.1,-0.1 0.1,-0.1 0.2,-0.1 v 0 c 0.1,-0.1 0.2,-0.1 0.2,-0.1 v 0 c 0.7,-3.2 1.4,-6.5 2.1,-9.8 0.3,-0.7 0.3,-1 0.3,-1.4 0.5,-2.4 0.7,-4.3 1,-6.3 v -0.3 h 0.1 c 0,-0.1 0.1,-0.2 0.1,-0.3 l -0.1,-0.1 c 0.1,-0.1 0.2,-0.3 0.3,-0.5 0.1,-0.2 0.1,-0.3 0.3,-0.5 0.1,-0.7 0.1,-1 -0.1,-1.4 0.1,-3.6 0,-7.1 -0.1,-10.6 0,-2.9 -0.1,-5.2 -0.1,-7.5 -1.6,-3.7 -1,-6.7 0.8,-9.6 -2.1,-2.4 -2.5,-4.9 -1.7,-7.7 -0.1,-2.7 -0.5,-4.9 -0.8,-7.1 -0.1,-0.7 0.3,-1.4 0.5,-2.1 0.6,0.4 1.3,0.8 2.1,1.2 -0.1,0 0.2,-0.1 0.3,-0.3 0.2,-0.3 0.3,-0.6 0.5,-0.8 1.3,-1.9 3,-3.4 5.6,-4.1 v 0 c 0.1,-0.1 0.1,-0.1 0.1,-0.2 v -0.1 c 0.1,-0.2 0.3,-0.4 0.5,-0.6 0.5,-0.6 0.8,-1.2 1.2,-1.7 0.1,-4.1 3,-7 5.6,-10.1 0.4,-0.2 0.5,-0.5 0.5,-0.5 0.7,-1.5 1.2,-2.8 1.7,-4.1 0.1,0 0.2,0.1 0.3,0.1 -0.1,0.5 -0.1,1 0,1.7 v 0 c 0,0.1 0.1,0.1 0.1,0.2 v -0.1 c 0.3,0.5 0.5,1.1 0.7,1.7 0.4,0.8 0.7,1.6 1,2.4 0.5,2.3 1,4 1.6,5.8 0.1,1 0.4,1.6 0.6,2.1 0.6,1.9 1.3,3.4 1.9,5 0.4,1 0.7,1.6 1,2.1 0.5,1.9 1,3.6 1.4,5.1 3,2.9 2.6,6.5 3.2,9.7 0.1,0.5 0.2,0.6 0.2,0.6 1.2,2.1 2.6,3.9 3.9,5.7 0.1,0.6 0.2,0.8 0.3,0.9 l 0.1,0.1 v 0 c 0,0.1 0.1,0.1 0.1,0.1 0,0 0.1,0 0.1,0.1 v 0.1 c 0.6,1.1 1.4,2.2 2,3.4 2.5,4.3 5,8.2 7.5,12.2 0.9,1.4 1.8,2.9 2.7,4.2 1.2,1.9 2.6,3.9 3.8,5.8 0.1,0.1 -0.3,0.5 -0.4,0.8 -0.1,0.8 0.3,1.5 0.5,2.1 0.6,0.9 1.5,1.2 1.8,1.8 2.4,4.6 4.7,9.3 6.9,13.9 0.7,1.7 1.5,3 2.3,4.3 0.6,1.4 1.2,2.5 1.7,3.5 -0.2,0.1 -0.4,0.3 -0.6,0.5 -3.2,-1.5 -6.5,-3 -9.8,-4.4 -0.6,-0.3 -1,-0.3 -1.2,-0.3 -1.4,-0.1 -2.3,0 -3.2,0.1 -1.7,0.1 -2.9,0.3 -4.1,0.5 -1.2,0.3 -1.8,0.5 -2.5,0.8 -1.6,0.3 -2.7,0.5 -3.8,0.8 -0.8,0.1 -1.2,0.3 -1.4,0.5 -5.6,1.8 -10.8,3.6 -16,5.5 -3,0.9 -5.5,1.5 -7.9,2.1 z"
         id="path1324"
         style="fill:#040304" />
      <circle
         class="st6"
         cx="278.20001"
         cy="278.20001"
         r="272.20001"
         id="circle1326"
         style="fill:none;stroke:#000000;stroke-width:12;stroke-miterlimit:4.04" />
    </g>
  </g>
</svg>
